<?xml version="1.0" encoding="UTF-8"?>
<svg xmlns="http://www.w3.org/2000/svg" xmlns:xlink="http://www.w3.org/1999/xlink" version="1.1" viewBox="0 0 181 209">
  <!-- Generator: Adobe Illustrator 29.2.1, SVG Export Plug-In . SVG Version: 2.1.0 Build 116)  -->
  <defs>
    <style>
      .st0, .st1 {
        fill: #e7e9f1;
      }

      .st2 {
        fill: #231f20;
      }

      .st3 {
        isolation: isolate;
      }

      .st4 {
        fill: #47617e;
      }

      .st5 {
        fill: #414854;
      }

      .st6, .st7 {
        fill: #bed6ea;
      }

      .st1 {
        mix-blend-mode: soft-light;
      }

      .st8 {
        fill: #92d5d8;
        stroke: #47617e;
        stroke-linecap: round;
        stroke-linejoin: round;
        stroke-width: 10.7px;
      }

      .st9 {
        fill: #487cb9;
      }

      .st7 {
        mix-blend-mode: multiply;
        opacity: .5;
      }
    </style>
  </defs>
  <g class="st3">
    <g id="Layer_1">
      <g id="surface2602">
        <polygon class="st8" points="6.7 152.9 90.5 201.3 174.3 152.9 174.3 56.1 90.5 7.7 6.7 56.1 6.7 152.9"/>
      </g>
      <g>
        <path class="st2" d="M70.4,53.8l-1.1,1.1-.6.6h0c0,0,0,.2,0,.2v2.7s0,.1,0,.1h0c0,0,.6.7.6.7l1.1,1.1v31.9l-1.1,1.1-2.6,2.6-4,4-3.1,3.1h0v25.3h0c0,.1,0,.2,0,.2l3.1,3.1.7.7v5.7l-.7.7-.6.6h-10.7c0,0-5.3,5.4-5.3,5.4-.2-.1-.5-.2-.8-.2h0s0,0,0,0h0c-.3,0-.6.1-.9.3,0,0,0,0-.1.1-.3.3-.4.6-.4,1h0s0,0,0,0c0,.4.2.8.4,1,0,0,0,0,.1.1.2.2.5.3.9.3h0s0,0,0,0h0c.4,0,.8-.2,1-.4.3-.3.4-.6.4-1h0s0,0,0,0c0-.3-.1-.6-.3-.9l5.2-5.2h10.7c0,0,.3-.4.3-.4l1.1-1.1h0v-6.1h0c0-.1,0-.2,0-.2l-1.1-1.1-2.7-2.7v-24.9l2.7-2.7,4-4,2.6-2.6,1.5-1.5h0v-32.3h0c0-.1,0-.2,0-.2l-1.5-1.5-.2-.2v-2.4s.2-.2.2-.2l1.6-1.6h0v-.5h-.5v.2ZM46.2,146c0,.3-.1.5-.3.7-.2.2-.4.3-.7.3h0s0,0,0,0h0c-.3,0-.5-.1-.7-.3,0,0-.1-.1-.2-.2,0-.1-.1-.3-.1-.5h0s0,0,0,0c0-.2,0-.3.1-.5,0,0,.1-.2.2-.2.2-.2.4-.3.7-.3h0s0,0,0,0h0c.3,0,.5.1.7.3.2.2.3.4.3.7h0s0,0,0,0Z"/>
        <path class="st2" d="M71.6,93l-.5.5-1.9,1.9-2.6,2.6-4,4-1.8,1.8h0v23.4h0c0,.1,0,.2,0,.2l1.8,1.8,2.1,2.1v7.9l-1.6,1.6h-10.4c0,0-5.4,5.4-5.4,5.4h0v2c-.6.1-1.1.7-1.1,1.3s.6,1.4,1.4,1.4,1.4-.6,1.4-1.4-.5-1.2-1.1-1.3v-1.7l5.2-5.2h10.4c0,0,1.7-1.8,1.7-1.8h0v-8.3h0c0-.1,0-.2,0-.2l-2.5-2.5-1.4-1.4v-23l1.4-1.4,4-4,2.6-2.6,1.9-1.9.9-.9h0v-39.7h-.5v39.4Z"/>
        <path class="st2" d="M99.9,189.8c0-.1-.2-.3-.3-.4-.2-.2-.4-.3-.7-.4v-1.5h0c0-.1,0-.2,0-.2l-.3-.3h0s-1.3-1.3-1.3-1.3l-1.3-1.3v-10.9s1.3-1.3,1.3-1.3l.5-.5h0v-16.3l.7-.7,1.4-1.4.2-.2,2.5-2.5h0s0,0,0,0h0v-4.1h0c0-.1,0-.2,0-.2h0s-1-1-1-1c.1-.2.2-.5.2-.8,0-.7-.6-1.4-1.4-1.4s-.4,0-.6.1c-.4.2-.8.7-.8,1.2s.3,1,.8,1.2c.2,0,.4.1.6.1s.5,0,.8-.2l.9.9v3.8l-2.1,2.1-.2.2-1.4,1.4-1.1,1.1h0v16.3h-.1c0,.1-1.5,1.6-1.5,1.6l-.2.2h0s0,0,0,0h0c0,.1,0,11.2,0,11.2h0c0,.1,0,.1,0,.1h0s.2.2.2.2l1.5,1.5,1.2,1.2v1.3c-.4,0-.8.2-1,.5h0c0,0-.1.1-.2.2-.2.3-.3.6-.3.9h0s0,0,0,0c0,.4.1.7.3.9,0,0,0,.1.2.2h0c.3.3.7.5,1.1.5h0s0,0,0,0h0c.4,0,.8-.2,1.1-.5.1-.1.2-.2.3-.4.1-.2.2-.5.2-.8h0s0,0,0,0c0-.3,0-.5-.2-.8ZM99.6,190.6c0,.3-.1.6-.3.8-.2.2-.5.3-.8.3h0s0,0,0,0h0c-.3,0-.6-.1-.8-.3h0c-.2-.2-.3-.5-.3-.8h0s0,0,0,0c0-.3.1-.6.3-.8h0c.2-.2.5-.3.8-.3h0s0,0,0,0h0c.3,0,.6.1.8.3.2.2.3.5.3.8h0s0,0,0,0Z"/>
        <path class="st2" d="M110.4,183.6v-1h0c0-.1,0-.2,0-.2h0s-1.2-1.2-1.2-1.2l-1.1-1-2.3-2.3v-2.3h0c0-.1,0-.2,0-.2l-1.6-1.6-.5-.5v-5.4h0c0,0,0-.2,0-.2l-.8-.8-1.2-1.2v-8.1l1.2-1.2,1.4-1.4,4-4h0s0,0,0,0h0v-4.7h0c0-.1,0-.2,0-.2h0s-4-4-4-4l-1.4-1.4-.9-.9v-2h0c0-.1,0-.2,0-.2l-1.8-1.8-1.4-1.4-.7-.7v-8.2h0c0-.1,0-.2,0-.2l-.5-.5-1.5-1.5-.2-.2h-.1c0-.1-.2-.3-.2-.3v-10.4l.2-.2h.1c0-.1.2-.4.2-.4l1.5-1.5,1.3-1.3.2-.2h0v-10l1.2-1.2,2.2-2.2v21.2h0c0,.1,0,.2,0,.2l.4.4,1.4,1.4,3.9,3.9v21.7h0c0,.1,0,.2,0,.2h0s1,1.1,1,1.1l3.7,3.7v2c-.6.1-1.1.7-1.1,1.3s.6,1.4,1.4,1.4.1,0,.2,0c.7,0,1.2-.7,1.2-1.3s-.5-1.2-1.1-1.3v-2.1h0c0-.1,0-.2,0-.2h0s-4.1-4.1-4.1-4.1l-.6-.6v-21.7h0c0-.1,0-.2,0-.2l-.4-.4-4-4-1.4-1.4v-22.3s0,0,0,0l-.4.4-2.3,2.3-1.4,1.4-.2.2h0v10l-1,1-1.5,1.5-.2.2h-.1c0,.1-.5.6-.5.6h-.1c0,.1,0,.2,0,.2h0v10.7h0c0,.1,0,.2,0,.2h.1c0,.1.5.6.5.6h.1c0,.1.2.4.2.4l1.5,1.5h.1v8.3h0c0,.1,0,.2,0,.2l1.1,1.1,1.4,1.4,1.4,1.4v1.9c0-.1-.1-.2-.2-.3-.3-.3-.7-.5-1.1-.5h0s0,0,0,0h0c-.4,0-.8.2-1.1.5-.1.1-.2.2-.3.4-.1.2-.2.5-.2.8h0s0,0,0,0c0,.3,0,.5.2.8,0,.1.2.3.3.4h0c.3.3.7.5,1.1.5h0s0,0,0,0h0c.4,0,.8-.2,1.1-.5h0s0,0,0-.1l1.5,1.5,1.4,1.4,1.7,1.7v4.4l-1.7,1.7-1.4,1.4-.6.6-2.2,2.2-.8.8h0v14.1l-.5.5-1.3,1.3-.2.2h0v11h0c0,.1,0,.2,0,.2l.2.2,1.3,1.3,1.4,1.4,2.7,2.7,1.4,1.4.5.5c-.3.2-.4.6-.4,1,0,.7.6,1.4,1.4,1.4s1.4-.6,1.4-1.4-.6-1.4-1.4-1.4-.4,0-.5.1l-1-1-1.4-1.4-2.7-2.7-1.4-1.4-1.1-1.1v-10.7l1.1-1.1.9-.9h0v-14.1l.4-.4,2.2-2.2.5-.5,1.4-1.4,2.2-2.2h0v-4.8h0c0-.1,0-.2,0-.2l-2.2-2.2-1.4-1.4-1.2-1.2c0-.2.1-.4.1-.6h0s0,0,0,0c0-.2,0-.3,0-.5l1.2,1.2,1.4,1.4,3.6,3.6v4.4l-3.6,3.6-1.4,1.4-1.6,1.6h0v8.5h0c0,0,0,.2,0,.2l1.6,1.7.4.4v5.4h0c0,.1,0,.2,0,.2l1,1,1.2,1.2v2.3h0c0,.1,0,.2,0,.2l2.7,2.7,1.1,1,.8.8v.9c-.3,0-.6.2-.8.5-.2.2-.3.5-.3.8s.1.6.3.8c.2.3.6.5,1.1.5.7,0,1.4-.6,1.4-1.4s-.5-1.2-1.1-1.3ZM101,140.4c0,.2,0,.4-.1.5h-.1c0,.1,0,.1,0,.1,0,0,0,0,0,.1h0c-.2.2-.5.3-.8.3h0s0,0,0,0h0c-.3,0-.6-.1-.8-.3h0c-.2-.2-.3-.5-.3-.8h0s0,0,0,0c0-.3.1-.6.3-.8.2-.2.5-.3.8-.3h0s0,0,0,0h0c.3,0,.6.1.8.3.2.2.3.5.3.8h0s0,0,0,0Z"/>
        <path class="st2" d="M93.7,175.7l-1.6-1.6v-7.7h0c0-.1,0-.2,0-.2l-.7-.7-.2-.2-1.6-1.6v-1.7c.6-.1,1.1-.7,1.1-1.3s-.6-1.4-1.4-1.4-1.4.6-1.4,1.4.5,1.2,1.1,1.3v1.8h0c0,.1,0,.2,0,.2l.5.5,1.5,1.5.2.2.2.2v7.7h0c0,.1,0,.2,0,.2l2,2,.3.3v9.5l-.3.3-1,1c-.2-.2-.5-.3-.8-.3s-.3,0-.5,0c0,0-.2,0-.2.1-.4.2-.6.7-.6,1.1s.2.9.6,1.1c0,0,.2,0,.2.1.2,0,.3,0,.5,0,.7,0,1.4-.6,1.4-1.4s0-.5-.2-.7l.7-.6.7-.7h0v-9.9h0c0-.1,0-.2,0-.2l-.7-.7Z"/>
        <path class="st2" d="M66.6,54l.5-.5h-.7l-1.1,1.1h0v3.1h0c0,.1,0,.2,0,.2l1.4,1.4,2.2,2.2v30.1l-2.2,2.2-4,4-4.5,4.5h0v29.2l-5,5h-3.5c0,0-4.1,4.2-4.1,4.2h-3.1c0,0-1.5,1.6-1.5,1.6l-.9.9h0v5.5h0c0,.1,0,.2,0,.2l.9.9,1,1v1c-.5,0-.9.5-1,.9,0,.1,0,.3,0,.4s0,.3,0,.4c.2.6.7,1,1.3,1s1.4-.6,1.4-1.4-.5-1.2-1.1-1.3v-1.1h0c0-.1,0-.2,0-.2h0s-1.5-1.5-1.5-1.5l-.5-.5v-5.1l.5-.5,1.8-1.8h3.1c0,0,4.1-4.2,4.1-4.2h3.5c0,0,5.1-5.2,5.1-5.2h0v-29.2l4.1-4.1,4-4,2.6-2.6h0s0-.1,0-.1h0v-30.4h0c0-.1,0-.2,0-.2h0s-2.6-2.7-2.6-2.7l-.9-.9v-2.7l.9-.9Z"/>
        <path class="st2" d="M65,125.4c.7,0,1.4-.6,1.4-1.4s-.6-1.4-1.4-1.4-.5,0-.8.2l-.9-.9v-10.9l1.2-1.2c.2.1.5.2.8.2.7,0,1.2-.5,1.3-1.1,0,0,0-.2,0-.3s0-.2,0-.3c-.1-.6-.7-1.1-1.3-1.1s-1.4.6-1.4,1.4,0,.5.2.8l-1.3,1.3h0v11.2h0c0,.1,0,.2,0,.2l.9.9c-.1.2-.2.5-.2.8,0,.7.6,1.4,1.4,1.4Z"/>
        <path class="st2" d="M122.5,147.6c-.7,0-1.2.5-1.3,1.1h-1.5l-3.5-3.5-3-3-1.9-1.9v-18.2h0c0-.1,0-.2,0-.2l-2.1-2.1-1.1-1.1-2.2-2.2v-14.5l1.2-1.2c.3.2.7.4,1.1.4h0s0,0,0,0h0c.4,0,.8-.2,1.1-.4,0,0,0,0,0,0,.3-.3.5-.7.5-1.1h0s0,0,0,0c0-.4-.2-.8-.5-1.1,0,0,0,0,0,0-.3-.2-.6-.4-1.1-.4h0s0,0,0,0h0c-.4,0-.8.2-1.1.5h0c-.3.3-.5.7-.5,1.1h0s0,0,0,0c0,.3,0,.6.2.8l-1.3,1.3h0v14.9h0c0,.1,0,.2,0,.2l2.7,2.7,1.1,1.1,1.7,1.7v18.2h0c0,.1,0,.2,0,.2l2.4,2.4,3,3,3.2,3.2h0c0,0,.1,0,.1,0h1.6c.1.6.7,1.1,1.3,1.1s1.4-.6,1.4-1.4-.6-1.4-1.4-1.4ZM106.9,99.7c0-.3.1-.6.3-.8h0c.2-.2.5-.3.8-.3h0s0,0,0,0h0c.3,0,.6.1.8.3.1.1.2.3.3.5,0,0,0,.2,0,.3h0s0,0,0,0c0,.1,0,.2,0,.3,0,.2-.1.3-.3.5-.2.2-.5.3-.8.3h0s0,0,0,0h0c-.3,0-.6-.1-.8-.3h0c-.2-.2-.3-.5-.3-.8h0s0,0,0,0Z"/>
        <path class="st2" d="M116.2,170c-.1,0-.2,0-.4,0-.3,0-.5,0-.7.2l-1.7-1.7h0c0,0-.1,0-.1,0h-5.6l-3.7-3.8-.2-.2v-1.6c0,0,.1,0,.2,0,.3,0,.6-.2.8-.4h0c.3-.3.5-.7.5-1.1h0s0,0,0,0c0-.4-.2-.8-.5-1.1-.2-.2-.5-.4-.8-.4-.1,0-.2,0-.3,0h0s0,0,0,0h0c-.4,0-.8.2-1.1.4,0,0,0,0,0,0-.3.3-.5.7-.5,1.1h0s0,0,0,0c0,.4.2.8.5,1.1h0s0,0,0,0c.2.2.5.3.8.4v1.7h0c0,0,0,.2,0,.2l.6.6,3.4,3.5h0c0,0,.1,0,.1,0h5.6s1.5,1.7,1.5,1.7c-.2.2-.3.5-.3.8,0,.7.6,1.4,1.4,1.4s.2,0,.4,0c.6-.2,1-.7,1-1.3s-.4-1.1-1-1.3ZM103.7,162.2h0c-.3,0-.6-.1-.8-.3h0c-.1-.1-.2-.3-.3-.5,0,0,0-.2,0-.3h0s0,0,0,0c0,0,0-.2,0-.3,0-.2.2-.4.3-.5.2-.2.5-.3.8-.3h0s0,0,0,0h0c.1,0,.2,0,.3,0,.2,0,.3.1.4.3.2.2.3.5.3.8h0s0,0,0,0c0,.3-.1.6-.3.8h0c-.1.1-.3.2-.4.3-.1,0-.2,0-.3,0h0s0,0,0,0Z"/>
        <path class="st2" d="M87.2,88.2h0c0,.1,0,.2,0,.2l3.9,3.9.2.2v30l-.2.2-3.4,3.4h0v5.8h0c0,.1,0,.2,0,.2l3.4,3.4.2.2.4.4v8.1h0c0,.1,0,.2,0,.2l1.2,1.1c-.2.3-.3.6-.3.9h0s0,0,0,0c0,.4.2.8.5,1.1.1.1.3.3.5.3.2,0,.4.1.6.1h0s0,0,0,0h0c.2,0,.3,0,.5,0,.2,0,.3-.1.5-.2,0,0,0,0,.1,0,0,0,0,0,0,0,0,0,.1-.1.2-.2.2-.3.3-.6.3-.9h0s0,0,0,0c0-.3-.1-.7-.3-.9,0,0-.1-.1-.2-.2,0,0,0,0,0,0,0,0,0,0-.1,0-.1-.1-.3-.2-.5-.2-.1,0-.3,0-.5,0h0s0,0,0,0h0c-.2,0-.4,0-.6.1-.1,0-.2.1-.3.2l-1.1-1v-8.1h0c0-.1,0-.2,0-.2l-.8-.8-.2-.2-3-3v-5.4l3-3,.2-.2.4-.4h0v-30.4h0c0-.1,0-.2,0-.2l-.4-.4-.2-.2-3.4-3.4v-34.5h-.5v34.6ZM93.3,146.2c0-.3.1-.6.3-.7h0s0,0,0,0c0,0,0,0,.1,0,.2-.1.4-.2.6-.2h0s0,0,0,0h0c.2,0,.3,0,.5.1.1,0,.2.1.3.2,0,0,.1.1.2.2,0,0,0,.2.1.3,0,0,0,.2,0,.3h0s0,0,0,0c0,.1,0,.2,0,.3,0,0,0,.2-.1.3,0,0-.1.2-.2.2,0,0-.2.2-.3.2-.1,0-.3.1-.5.1h0s0,0,0,0h0c-.2,0-.5,0-.6-.2,0,0,0,0-.1-.1-.2-.2-.3-.5-.3-.8h0s0,0,0,0Z"/>
        <path class="st2" d="M88.8,53.6v34.7h0c0,.1,0,.2,0,.2l2.2,2.2.2.2,1.2,1.2v30.2l-1.2,1.2-.2.2-2,2h0v5.6h0c0,.1,0,.2,0,.2l2,2,.2.2h0c0,0,0,0,0,0h1c0,.4.2.7.5.9.2.2.6.4.9.5,0,0,.1,0,.2,0h0s0,0,0,0h0c.3,0,.7-.1.9-.3,0,0,.1-.1.2-.2.1-.1.2-.2.3-.4,0,0,0-.2.1-.3,0-.2,0-.3,0-.5h0s0,0,0,0c0-.2,0-.4,0-.5,0,0,0-.2-.1-.3,0-.1-.2-.2-.3-.4,0,0-.1-.1-.2-.2-.3-.2-.6-.3-.9-.3h0s0,0,0,0h0c0,0-.1,0-.2,0-.4,0-.7.2-.9.5h0c-.2.2-.4.5-.4.8h-.8l-.2-.2-.2-.2-1.6-1.6v-5.2l1.6-1.6.2-.2,1.7-1.7h0v-30.6h0c0-.1,0-.2,0-.2l-1.7-1.7-.2-.2-1.8-1.8v-34.6h-.5ZM92.9,133.4c0-.2.2-.4.3-.5h0c.2-.2.4-.3.6-.3,0,0,.1,0,.2,0h0s0,0,0,0h0c.3,0,.6.1.8.3,0,0,.1.1.1.2.1.2.2.4.2.6h0s0,0,0,0c0,.2,0,.4-.2.6,0,0,0,.1-.1.2-.2.2-.5.3-.8.3h0s0,0,0,0h0c0,0-.1,0-.2,0-.2,0-.4-.2-.6-.3-.2-.2-.3-.3-.3-.6h0v-.5h0Z"/>
        <path class="st2" d="M33.2,78.3c.5,0,.9-.2,1.1-.6,0-.1.2-.3.2-.5h2.2l1.3,1.3,1.8,1.8h0c0,0,.1,0,.1,0h11c0,0,3.1-3.1,3.1-3.1h4.2c0,0,4.3-4.3,4.3-4.3l.2-.2h0v-7.3c.3,0,.6-.2.9-.4h0c.3-.3.5-.7.5-1.1h0s0,0,0,0c0-.4-.2-.8-.5-1.1-.3-.3-.7-.5-1.1-.5h0s0,0,0,0h0c-.4,0-.8.2-1.1.5-.3.3-.5.7-.5,1.1h0s0,0,0,0c0,.4.2.8.5,1.1.2.2.5.4.9.5v7l-4.3,4.3h-4.2c0,0-3.1,3.1-3.1,3.1h-10.7l-2.1-2.1-1.1-1.1h0c0,0-.1,0-.1,0h-2.4c0-.2-.1-.3-.2-.5-.2-.4-.7-.6-1.1-.6-.7,0-1.4.6-1.4,1.4s.6,1.4,1.4,1.4ZM61.8,64.7c-.2-.2-.3-.5-.3-.8h0s0,0,0,0c0-.3.1-.6.3-.8.2-.2.5-.3.8-.3h0s0,0,0,0h0c.3,0,.6.1.8.3.2.2.3.5.3.8h0s0,0,0,0c0,.3-.1.6-.3.8h0c-.2.2-.5.3-.8.3h0s0,0,0,0h0c-.3,0-.6-.1-.8-.3Z"/>
        <path class="st2" d="M29.3,146.1h0c0,0,3.4-3.5,3.4-3.5h5v5.5l-2.3,2.3h0v7.3l-1.2,1.2-1.1,1.1c-.2-.1-.5-.2-.8-.2-.7,0-1.4.6-1.4,1.4s.6,1.4,1.4,1.4,1.4-.6,1.4-1.4,0-.5-.2-.8l.7-.7,1.6-1.6h0v-7.3l2.1-2.1h.1c0-.1,0-.2,0-.2h0v-6.2h-5.8c0,0-3.4,3.5-3.4,3.5h-3c0,0-1.7,1.8-1.7,1.8-.2-.1-.5-.2-.8-.2-.7,0-1.4.6-1.4,1.4s.6,1.4,1.4,1.4,1.4-.6,1.4-1.4,0-.5-.2-.8l1.6-1.6h2.9Z"/>
        <path class="st2" d="M41.8,132.4c0-.6-.4-1.1-1-1.3-.1,0-.3,0-.4,0-.7,0-1.4.6-1.4,1.4s.6,1.4,1.4,1.4.3,0,.4,0c.6-.2,1-.7,1-1.3Z"/>
        <path class="st2" d="M17,88.1c.3,0,.5,0,.8-.2l.3.3h0c0,0,.1,0,.1,0h1.5s3.9,0,3.9,0l4.1,4.1v2h0c0,.1,0,.2,0,.2l.6.6,1.2,1.2h0c0,0,.1,0,.1,0h3.5c0,.5.5.9,1,1.1.1,0,.2,0,.3,0,.7,0,1.4-.6,1.4-1.4s-.6-1.4-1.4-1.4-.2,0-.3,0c-.5.1-.9.5-1,1.1h-3.4l-1.5-1.5-.2-.2v-2h0c0-.1,0-.2,0-.2l-4.2-4.2h0c0,0-.1,0-.1,0h-4.9c0,0-.5,0-.5,0l-.2-.2c.1-.2.2-.5.2-.8,0-.7-.6-1.4-1.4-1.4s-1.4.6-1.4,1.4.6,1.4,1.4,1.4Z"/>
        <path class="st2" d="M40.2,136.4l-2.1,2.1-1.8,1.8h-5.5c0,0-1.4,1.4-1.4,1.4-.3-.2-.6-.3-1-.3h0s0,0,0,0h0c-.4,0-.8.2-1.1.5-.3.3-.5.7-.5,1.1h0s0,0,0,0c0,.4.2.8.5,1.1.3.3.7.5,1.1.5h0s0,0,0,0h0c.4,0,.8-.2,1.1-.5.3-.3.5-.7.5-1.1h0s0,0,0,0c0-.3-.1-.6-.3-.9l1.4-1.2h5.5c0,0,1.5-1.6,1.5-1.6l2.6-2.6h0v-2.9h-.5v2.7ZM29.5,143c0,.3-.1.6-.3.8-.2.2-.5.3-.8.3h0s0,0,0,0h0c-.3,0-.6-.1-.8-.3-.2-.2-.3-.5-.3-.8h0s0,0,0,0c0-.3.1-.6.3-.8.2-.2.5-.3.8-.3h0s0,0,0,0h0c.3,0,.5.1.7.3l.2.2c.1.2.2.4.2.6h0s0,0,0,0Z"/>
        <path class="st2" d="M24.9,135.2h.2c0,0,3.3-3.3,3.3-3.3l.4-.4h0c0,0,0-.2,0-.2v-2.8s4.5-4.5,4.5-4.5h0v-6.6s0-1,0-1l.9-.9,1.2-1.2h0v-4.2l2.5-2.5,2-2h2.2c.1.6.7,1.1,1.3,1.1s.6,0,.8-.3c.3-.2.6-.6.6-1.1s-.2-.9-.6-1.1c-.2-.2-.5-.3-.8-.3-.7,0-1.2.5-1.3,1.1h-2.5c0,0-1.7,1.8-1.7,1.8l-2.9,2.9h0v4.2l-.8.8-1.3,1.3h0v1.9s0,5.8,0,5.8l-4.5,4.5h0v3s0,0,0,0l-3.5,3.5h-5.6c0,0-1.5,1.4-1.5,1.4-.2-.2-.5-.3-.8-.3-.7,0-1.4.6-1.4,1.4s.6,1.4,1.4,1.4,1.4-.6,1.4-1.4,0-.5-.2-.7l1.5-1.2h5.4Z"/>
        <path class="st2" d="M82,181.4c-.2-.1-.5-.2-.8-.2-.7,0-1.4.6-1.4,1.4s.6,1.4,1.4,1.4,1.4-.6,1.4-1.4,0-.5-.2-.8l1-1h0v-8.5h0c0-.1,0-.2,0-.2l-.6-.6-5.8-5.8v-4.3l6.2-6.2h0v-2.5l2.2-2.2c.2.1.5.2.8.2.7,0,1.4-.6,1.4-1.4s-.6-1.4-1.4-1.4-1.4.6-1.4,1.4,0,.5.2.8l-2.3,2.3h0v2.5l-5.9,5.9-.3.3h0v4.7h0c0,.1,0,.2,0,.2l.3.3,5.8,5.8.3.3v8.1l-.9.9Z"/>
        <path class="st2" d="M105.1,73.1h0v20.2h0c0,.1,0,.2,0,.2l2.8,2.8,1.1,1.1,4.1,4.1,1,1v4.3l-1,1-.4.4h0v2.3h0c0,.1,0,.2,0,.2l.4.4,1.1,1.1,1.9,1.9.4.4v8.8l-.4.4-1.8,1.8v-8.4h0c0-.1,0-.2,0-.2l-.7-.7c.1-.2.2-.5.2-.8,0-.5-.3-1-.7-1.2-.2,0-.4-.2-.6-.2-.7,0-1.4.6-1.4,1.4s.6,1.4,1.4,1.4.4,0,.6-.2c0,0,0,0,.1,0l.6.6v9.5l.4-.4,1.8-1.8.8-.8h0v-9.1h0c0-.1,0-.2,0-.2l-.8-.8-1.6-1.6-1.4-1.4v-1.9l1.4-1.4h0v-4.7h0c0-.1,0-.2,0-.2l-1.4-1.4-4.1-4.1-1.1-1.1-2.4-2.4v-19.9l.7-.7v19.9h0c0,.1,0,.2,0,.2l1.7,1.7,1.1,1.1,4.1,4.1,3,3h0v5.6s0,0,0,0c-.2,0-.4.2-.6.4-.3.3-.5.7-.5,1.1h0s0,0,0,0c0,.4.2.8.5,1.1h0c.2.2.4.3.6.4.2,0,.3,0,.5,0h0s0,0,0,0h0c.4,0,.8-.2,1.1-.5.3-.3.5-.7.5-1.1h0s0,0,0,0c0-.4-.2-.8-.5-1.1-.3-.3-.6-.4-1-.5v-5.6h0c0-.1,0-.2,0-.2l-.5-.5-3-3-4.1-4.1-1.1-1.1-1.3-1.3v-21l-.4.4-1.2,1.2h0ZM116.7,108.6h0c.3,0,.6.1.8.3.2.2.3.5.3.8h0s0,0,0,0c0,.3-.1.6-.3.8-.2.2-.5.3-.8.3h0s0,0,0,0h0c-.2,0-.4,0-.5-.1,0,0-.2-.1-.3-.2h0c-.2-.2-.3-.5-.3-.8h0s0,0,0,0c0-.3.1-.6.3-.8,0,0,.2-.1.3-.2.2,0,.3-.1.5-.1h0s0,0,0,0Z"/>
        <path class="st2" d="M85.4,178c-.7,0-1.4.6-1.4,1.4s.5,1.2,1.1,1.3v.9l-3.8,3.8h-5.3c0,0-.8.9-.8.9l-.5.5c-.1,0-.2-.1-.4-.2-.1,0-.3,0-.5,0h0s0,0,0,0h0c-.4,0-.8.2-1.1.5-.2.2-.4.5-.4.8,0,0,0,.2,0,.3h0s0,0,0,0c0,.1,0,.2,0,.3,0,.3.2.6.4.8.3.3.7.5,1.1.5h0s0,0,0,0h0c.2,0,.3,0,.5,0,.3,0,.5-.2.7-.4h0c0,0,.2-.2.2-.3.1-.2.2-.5.2-.8h0s0,0,0,0c0-.3,0-.6-.2-.8,0,0-.1-.2-.2-.2l.2-.2.7-.7.4-.4h5.3c0,0,4-4,4-4h0v-1.2c.6-.1,1.1-.7,1.1-1.3s-.6-1.4-1.4-1.4ZM74.9,188.3c0,.3-.1.6-.3.8h0c0,0-.2.2-.3.2-.1,0-.3.1-.5.1h0s0,0,0,0h0c-.3,0-.6-.1-.8-.3-.2-.2-.3-.5-.3-.8h0s0,0,0,0c0-.3.1-.6.3-.8.2-.2.5-.3.8-.3h0s0,0,0,0h0c.2,0,.3,0,.5.1h0s0,0,0,0l.2.2.2.2h0c.1.1.2.4.2.6h0s0,0,0,0Z"/>
        <path class="st2" d="M139.7,147.8l-1.4,1.4h0v1.2c-.6.1-1.1.7-1.1,1.3s.6,1.4,1.4,1.4,1-.3,1.2-.7c0-.2.1-.4.1-.6s0-.4-.1-.6c-.2-.4-.5-.6-1-.7v-.9l1-1,.6-.6h0v-6h0c0-.1,0-.2,0-.2l-.6-.6-1.2-1.2h0c0,0-.1,0-.1,0h-3l-.4-.4-.7-.7-.5-.5-.9-.8-1.6-1.6h0c0,0-.1,0-.1,0h-4.2l-4.9-4.9v-29.3h0c0-.1,0-.2,0-.2l-.7-.7-4.8-4.8-3-3-2-2v-13.1l2-2,2.2-2.2h1.5l-.6.6-3,3-.6.6h0v13.5h0c0,.1,0,.2,0,.2l.6.6,3,3,4.8,4.8,1.7,1.7v28.3h0c0,.1,0,.2,0,.2l2,2h0c0,0,.1,0,.1,0h1.3c.1.6.7,1.1,1.3,1.1s1.4-.6,1.4-1.4-.6-1.4-1.4-1.4-1.2.5-1.3,1.1h-1.2l-1.8-1.8v-28.3h0c0-.1,0-.2,0-.2l-2.1-2.1-4.8-4.8-3-3-.2-.2v-13.2l.2-.2,3-3,1.4-1.4.4-.4h-2.9c0,0-1.9,2-1.9,2l-2.4,2.4h0c0,0,0,.2,0,.2v13.4h0c0,.1,0,.2,0,.2l2.4,2.4,3,3,4.8,4.8.3.3v29.3h0c0,.1,0,.2,0,.2l5.1,5.1h0c0,0,.1,0,.1,0h4.2l1.9,1.9.9.9.5.5.7.7h.1c0,.1,0,.2,0,.2h3.1l1.5,1.5.2.2v5.6l-.2.2Z"/>
        <path class="st2" d="M57.3,129.4h0v-27l5.3-5.3,4-4,1.4-1.4h0v-12.6h0c0-.1,0-.2,0-.2l-1.4-1.4-3.4-3.4-.2-.2-.2.2-.2.2-3.9,3.9h-3.2c0,0-3.5,3.6-3.5,3.6h-8.8c0,0-2.4,2.4-2.4,2.4l-1.5,1.5h-2.7c-.1-.6-.7-1.1-1.3-1.1s-.8.2-1.1.5c-.2.2-.3.5-.3.8s.1.6.3.8c.2.3.6.5,1.1.5.7,0,1.2-.5,1.3-1.1h3c0,0,1.2-1.3,1.2-1.3l2.6-2.6h8.8c0,0,3.5-3.6,3.5-3.6h3.2c0,0,3.6-3.7,3.6-3.7l.4-.4,3.6,3.6.9.9v12.2l-.9.9-4,4-5.7,5.7h0v27.1l-1.2,1.2c-.2-.1-.5-.2-.8-.2-.7,0-1.4.6-1.4,1.4s.6,1.4,1.4,1.4,1.4-.6,1.4-1.4,0-.5-.2-.8l1.3-1.3h0Z"/>
        <path class="st2" d="M42,140.2h2.2c0,0,0-.2,0-.2l.9-.9,1.2-1.2h0v-6l5-5h0v-3.9l4.2-4.2h0v-17.7l3.1-3.1.4-.4h-3.1c0,0-3.3,3.3-3.3,3.3h0v10.7l-3.3,3.3-1.3-1.3v-2.3c.6-.1,1-.7,1-1.3s-.4-1.2-1-1.3v-8.8l4.5-4.5h8.8c0,0,1-1.1,1-1.1l4-4,.2-.2h0v-9h0c0-.1,0-.2,0-.2l-.2-.2-1.1-1.1-.4-.4v9.6l-2.5,2.5-1.8,1.8h-9.8c0,0-5.8,5.8-5.8,5.8l-.9.9-2.9,2.9h-2.7c.1,0,.3-.2.4-.3h0c.3-.3.5-.7.5-1.1h0s0,0,0,0c0-.4-.2-.8-.5-1.1-.3-.3-.7-.5-1.1-.5h0s0,0,0,0h0c-.4,0-.8.1-1,.4l-2.2-2.2h0c0,0-.1,0-.1,0h-4c0,0-1.1,1.1-1.1,1.1h-7.1c0,0-2.1,2.2-2.1,2.2h0v3.1l-.6.6c-.2-.1-.5-.2-.8-.2-.7,0-1.4.6-1.4,1.4s.6,1.4,1.4,1.4,1.4-.6,1.4-1.4,0-.5-.2-.8l.6-.6h0v-3.1l2-2h7.1c0,0,1.1-1.1,1.1-1.1h3.6l2.2,2.2c-.1.2-.2.5-.2.8h0s0,0,0,0c0,.4.2.8.5,1.1.3.3.7.5,1.1.5h0s0,0,0,0h0c.2,0,.4,0,.6-.1h0s-.6.6-.6.6l-3.8,3.8-2.7,2.7h0v7.8l-1.4,1.4h0v3.4l-1.6,1.6-3.4,3.4h-6.3c0,0-.4.6-.4.6-.2,0-.4-.2-.6-.2-.7,0-1.4.6-1.4,1.4s.6,1.4,1.4,1.4,1.4-.6,1.4-1.4-.1-.7-.3-.9l.3-.4h6.2c0,0,3.1-3.2,3.1-3.2l2.1-2.1h0v-3.4l1.4-1.4h0v-7.8l2.3-2.3,3.8-3.8.9-.9h2.8c0,0,2.6-2.6,2.6-2.6l.9-.9,6-6h9.8c0,0,1.5-1.6,1.5-1.6l2.9-2.9h0v-8.7l.8.8v8.6l-3.8,3.8-1.3,1.3h-8.8c0,0-4.6,4.7-4.6,4.7h0v9.1c-.7,0-1.2.7-1.2,1.3s.5,1.2,1.2,1.3v2.4h0c0,.1,0,.2,0,.2l1.6,1.6.2.2.2-.2,3.5-3.5h0v-10.7l3.1-3.1h1.6l-2.7,2.7h0v17.7l-4.2,4.2h0v3.9l-5,5h0v6l-.8.8-.9.9-.4.4h-2.2c0,0-.9,1-.9,1l-2.1,2.1h0v9.3l-.6.6-1.6,1.6h0v5.5l-2.1,2.1-3.8,3.8c-.2-.1-.5-.2-.8-.2-.7,0-1.4.6-1.4,1.4s.6,1.4,1.4,1.4,1.4-.6,1.4-1.4,0-.5-.2-.8l3.5-3.5,2.6-2.6h0v-5.5l1.1-1.1,1-1h0v-9.3l1.7-1.7,1.2-1.2ZM38.1,102.4h0s0,0,0,0h0c-.3,0-.6-.1-.8-.3-.2-.2-.3-.5-.3-.8h0s0,0,0,0c0-.3.1-.6.3-.8.2-.2.5-.3.8-.3h0s0,0,0,0h0c.3,0,.6.1.8.3.2.2.3.5.3.8h0s0,0,0,0c0,.3-.1.6-.3.8h0c-.2.2-.5.3-.8.3Z"/>
        <path class="st2" d="M162.8,109c-.3,0-.5,0-.8.2l-1.1-1.1-.2-.2v-3h0c0-.1,0-.2,0-.2l-2.5-2.5h0c0,0-.1,0-.1,0h-6.9l-1.3-1.3-1.8-1.8-2.7-2.7h0c0,0-.1,0-.1,0h-4c0-.3-.2-.6-.4-.8-.3-.3-.7-.5-1.1-.5h0s0,0,0,0h0c-.4,0-.8.2-1.1.5-.3.3-.5.7-.5,1.1h0s0,0,0,0c0,.4.2.8.5,1.1h0c.3.3.7.5,1.1.5h0s0,0,0,0h0c.4,0,.8-.2,1.1-.5.2-.2.4-.6.5-.9h3.9l3,3,1.8,1.8,1,1h0c0,0,.1,0,.1,0h6.9l2.3,2.3v3h0c0,.1,0,.2,0,.2l.6.6.8.8c-.1.2-.2.5-.2.8,0,.7.6,1.4,1.4,1.4s1.4-.6,1.4-1.4-.6-1.4-1.4-1.4ZM140.8,96.8c0,.3-.1.6-.3.8-.2.2-.5.3-.8.3h0s0,0,0,0h0c-.3,0-.6-.1-.8-.3h0c-.2-.2-.3-.5-.3-.8h0s0,0,0,0c0-.3.1-.6.3-.8.2-.2.5-.3.8-.3h0s0,0,0,0h0c.3,0,.6.1.8.3.2.2.3.5.3.8h0s0,0,0,0Z"/>
        <path class="st2" d="M119,77.6h0v13.6h0c0,.1,0,.2,0,.2l1.9,1.9.2.2h0c0,0,.1,0,.1,0h7.6l3.9,3.9.9.9.5.5.7.7,4.2,4.2h0c0,0,.1,0,.1,0h3.9l1.9,1.9,3.1,3.1,1.8,1.8,1.3,1.3v6.5h0c0,.1,0,.2,0,.2l3.8,3.8h0c0,0,.1,0,.1,0h4.1c0,.4.2.7.5.9h0c.3.3.7.5,1.1.5h0s0,0,0,0h0s0,0,0,0c.4,0,.8-.2,1.1-.5.3-.3.5-.7.5-1.1h0s0,0,0,0c0-.4-.2-.8-.5-1.1-.3-.3-.7-.5-1.1-.5h0s0,0,0,0h0c-.4,0-.8.2-1.1.5-.2.2-.4.5-.4.8h-4l-3.6-3.6v-6.5h0c0-.1,0-.2,0-.2l-1.8-1.8-1.8-1.8-3.1-3.1-1.6-1.6h0c0,0-.1,0-.1,0h-3.9l-4.5-4.5-.7-.7-.5-.5-.9-.8-3.6-3.6h0c0,0-.1,0-.1,0h-7.6l-.4-.4-1.5-1.5v-13.3l1.5-1.5h0s2.6,2.6,2.6,2.6h0c0,0,.1,0,.1,0h5.1l2.1,2.1h0c0,0,.1,0,.1,0h5.3l3,3c-.1.2-.2.5-.2.8,0,.4.2.8.4,1,.2.2.6.3.9.3s.5,0,.8-.2l1,1,.9.9h0c0,0,.1,0,.1,0h1.2c0,.4.3.7.6.9.2.2.5.2.8.2.7,0,1.4-.6,1.4-1.4s-.6-1.4-1.4-1.4-.6,0-.8.2c-.3.2-.5.5-.6.9h-1.1l-1.1-1.1-.6-.6c.2-.2.2-.5.2-.8,0-.7-.6-1.4-1.4-1.4s-.6,0-.8.2h-.1c0-.1-2.9-3-2.9-3h0c0,0-.1,0-.1,0h-5.3l-2.1-2.1h0c0,0-.1,0-.1,0h-5.1l-2.7-2.7-.2-.2h0s-.2.2-.2.2l-1.7,1.7h0ZM159.9,122.3v-.5c0-.2.2-.4.3-.5.2-.2.5-.3.8-.3h0s0,0,0,0h0s0,0,0,0c.3,0,.6.1.8.3.2.2.3.5.3.8h0s0,0,0,0c0,.3-.1.6-.3.8-.2.2-.5.3-.8.3h0s0,0,0,0h0c-.3,0-.6-.1-.8-.3h0c-.2-.2-.3-.4-.3-.6h0Z"/>
        <path class="st2" d="M145.2,124.2s0,0-.1,0c-.6,0-1.1.5-1.2,1.1h-3.4l-.8-.8-3.4-3.4h0c0,0-.1,0-.1,0h-1c0-.2-.1-.4-.2-.5,0-.1-.1-.2-.2-.3-.1-.1-.3-.3-.5-.3-.2,0-.3-.1-.5-.1,0,0,0,0-.1,0h0s0,0,0,0h0c-.3,0-.5,0-.7.2-.2,0-.3.2-.4.3h0c-.2.2-.4.5-.4.8h-1.8l-1.3-1.4v-5.7h0c0-.1,0-.2,0-.2l-2-2v-8.8h0c0,0,0-.2,0-.2l-5.7-5.9-4.8-5-.9-1v-12.4l.9-.9,3.3-3.3h0v-4.6h0c0-.1,0-.2,0-.2l-3.3-3.3-3-3-3.3-3.3v-6.5h-.5v6.6h0c0,.1,0,.2,0,.2l3.7,3.7,3,3,2.8,2.8v4.2l-2.8,2.8-1.4,1.4h0v12.8h0c0,.1,0,.2,0,.2l1.4,1.4,4.8,5,5.3,5.5v8.8h0c0,.1,0,.2,0,.2l2,2v5.7h0c0,0,0,.2,0,.2l1.4,1.5h0c0,0,.1,0,.1,0h1.9c0,.4.2.7.5.9.1.1.3.2.4.3.2.1.4.2.7.2h0s0,0,0,0h0s0,0,.1,0c.2,0,.3,0,.5-.1.2,0,.4-.2.5-.3,0,0,.2-.2.2-.3.1-.2.2-.4.2-.6h.9l3.7,3.7.5.5h0c0,0,.1,0,.1,0h3.5c.1.6.6,1,1.2,1.1,0,0,0,0,.1,0,.7,0,1.4-.6,1.4-1.4s-.6-1.4-1.4-1.4ZM134.1,122.4c-.1,0-.3.2-.5.2,0,0-.1,0-.2,0-.3,0-.5,0-.7-.2-.3-.2-.5-.6-.5-.9s0,0,0,0h0c0-.4.2-.7.5-.9.2-.1.4-.2.7-.2s.1,0,.2,0c.2,0,.3,0,.5.2.3.2.5.5.5.9h0s0,0,0,0c0,.4-.2.8-.5,1Z"/>
        <path class="st2" d="M104,68.3h0c-.4,0-.8.2-1.1.5h0c-.1.1-.2.2-.3.4-.1.2-.2.5-.2.8h0s0,0,0,0c0,.3,0,.5.2.7,0,.1.2.3.3.4.2.2.5.4.9.5v45.1h0c0,.1,0,.2,0,.2l.2.2,4,4,1.1,1.1h0v18.2h0c0,.1,0,.2,0,.2l1.5,1.5,2.4,2.4,3,3,4.6,4.6.3.3.4.4v1c-.1,0-.3,0-.4.1-.4.2-.7.7-.7,1.2s.3,1,.7,1.2c.2.1.4.2.6.2.7,0,1.4-.6,1.4-1.4s-.5-1.2-1.1-1.3v-1.1h0c0-.1,0-.2,0-.2l-.8-.8-.4-.4-4.4-4.4-3-3-2.1-2.1-1.4-1.4v-18.1h0c0-.1,0-.2,0-.2l-.5-.5-1.1-1.1-3.8-3.8v-45c.3,0,.6-.2.9-.4h0c.3-.3.5-.7.5-1.1h0s0,0,0,0c0-.4-.2-.8-.5-1.1-.3-.3-.7-.5-1.1-.5h0ZM104.8,69.2c.2.2.3.5.3.8h0s0,0,0,0c0,.3-.1.6-.3.8h0c-.2.2-.5.3-.8.3h0s0,0,0,0h0c-.3,0-.6-.1-.8-.3-.2-.2-.3-.5-.3-.8h0s0,0,0,0c0-.3.1-.6.3-.8h0c.2-.2.5-.3.8-.3h0s0,0,0,0h0c.3,0,.6.1.8.3Z"/>
        <path class="st2" d="M144.9,93.1h0c0,0-.1,0-.1,0h-9.4l-.5-.5-.7-.7-.5-.5-.9-.9-.8-.8h0c0,0-.1,0-.1,0h-8.1l-1.4-1.4v-6.1l-.4.4-.9.9-.5.5h0v5.8h0c0,.1,0,.2,0,.2l.5.5,1.7,1.7h0c0,0,.1,0,.1,0h7.9l2,2,.9.8.5.5.7.7,4.8,4.8.9.9h0c0,0,.1,0,.1,0h4.3c0,0,3.1,3.2,3.1,3.2l1.8,1.8,3.4,3.4v7.1h0c0,.1,0,.2,0,.2l.4.4c-.1.2-.2.5-.2.8,0,.7.6,1.4,1.4,1.4s1.4-.6,1.4-1.4-.6-1.4-1.4-1.4-.5,0-.8.2l-.3-.3v-7.1h0c0-.1,0-.2,0-.2l-3.8-3.8-1.8-1.8-2.9-2.9h0c0,0-.1,0-.1,0h-4.2l-1.2-1.2-4.8-4.8-.7-.7-.5-.5-.9-.9-1.7-1.7h0c0,0-.1,0-.1,0h-7.9l-2-2h0v-5.5h0s.8-.8.8-.8v5h0c0,.1,0,.2,0,.2l1.6,1.6h0c0,0,.1,0,.1,0h8.1l1,1,.9.8.5.5.7.7.2.2h0c0,0,.1,0,.1,0h9.4l.4.4,3.1,3.1,1.8,1.8.7.7h0c0,0,.1,0,.1,0h5.7v-3.3l2.4-2.4h3.7c0,0,.8-.9.8-.9.2.1.5.2.8.2.7,0,1.4-.6,1.4-1.4s-.6-1.4-1.4-1.4-1.4.6-1.4,1.4,0,.5.2.8l-.8.8h-3.7c0,0-2.5,2.6-2.5,2.6h0v3.1h-5.1l-.9-.9-1.8-1.8-3.1-3.1h-.1Z"/>
        <path class="st2" d="M85.3,53.6v34.6h0c0,.1,0,.2,0,.2l2.7,2.7,1.3,1.3v30.6h0s-3.2,3.3-3.2,3.3h0v5.7h0c0,.1,0,.2,0,.2l3.7,3.7v4.7c-.3,0-.6.2-.9.4h0c-.3.3-.5.7-.5,1.1h0s0,0,0,0c0,.4.2.8.5,1.1h0c.3.3.7.5,1.1.5h0s0,0,0,0h0c.4,0,.7-.1,1-.3,0,0,0,0,.1-.1,0,0,0,0,.1-.1.2-.3.4-.6.4-1h0s0,0,0,0c0-.4-.1-.7-.4-1,0,0,0,0-.1-.1,0,0,0,0-.1-.1-.2-.2-.5-.3-.7-.3v-4.8h0c0-.1,0-.2,0-.2l-.4-.4-3.3-3.3v-5.3l2.8-2.8.4-.4h0v-31h0c0-.1,0-.2,0-.2l-1.8-1.8-2.3-2.3v-34.5h-.5ZM90.1,141h0s0,0,0,0h0c.3,0,.6.1.8.3,0,0,.2.2.2.3,0,.1.1.3.1.5h0s0,0,0,0c0,.2,0,.3-.1.5,0,.1-.1.2-.2.3-.2.2-.5.3-.8.3h0s0,0,0,0h0c-.3,0-.6-.1-.8-.3-.2-.2-.3-.5-.3-.8h0s0,0,0,0c0-.3.1-.6.3-.8h0c.2-.2.5-.3.8-.3Z"/>
        <path class="st2" d="M80,88.5h0c0,.1,0,.2,0,.2l4.1,4.1v17.9l-2.1,2.1h0v25.4l-5.3,5.3-1.6,1.6-.5.5h0c0,0,0,.2,0,.2v22.5h0c0,.1,0,.2,0,.2l.5.5.6.6c-.1.2-.2.5-.2.8h0s0,0,0,0c0,.4.2.8.5,1.1h0c.2.2.4.3.7.4.2,0,.3,0,.5,0h0s0,0,0,0h0c.4,0,.8-.2,1.1-.5.3-.3.5-.7.5-1.1h0s0,0,0,0c0-.4-.2-.8-.5-1.1-.3-.3-.7-.5-1.1-.5h0s0,0,0,0h0c-.2,0-.3,0-.5,0-.2,0-.4.2-.6.4l-1-1h0v-22.4h0c0,0,1.6-1.7,1.6-1.7l5.7-5.7h0v-25.4l2.1-2.1h0v-18.3h0c0-.1,0-.2,0-.2l-4.1-4.1v-34.9h-.5v35ZM76.2,170.3c0-.1,0-.3,0-.4h0s0,0,0,0h.1c0-.1.2-.3.2-.3h0c0-.2.2-.2.3-.3.1,0,.3-.1.5-.1h0s0,0,0,0h0c.3,0,.6.1.8.3.2.2.3.5.3.8h0s0,0,0,0c0,.3-.1.6-.3.8-.2.2-.5.3-.8.3h0s0,0,0,0h0c-.2,0-.3,0-.5-.1-.1,0-.2-.1-.3-.2h0c-.2-.2-.3-.5-.3-.8h0s0,0,0,0Z"/>
        <path class="st2" d="M81.6,53.6v34.6s0,.1,0,.1h0c0,0,4,4.1,4,4.1v18.5l-2.4,2.4h0v26.5l-6,6h0v7.5h0c0,.1,0,.2,0,.2l1.8,1.8.2.2.2-.2,1.7-1.7h0v-2.5l4.7-4.7h0v-11.2l1.8,1.8v7.9h0c0,.1,0,.2,0,.2l2.5,2.5v2.9l-3.3,3.3h0v11.1h0c0,.1,0,.2,0,.2l2.3,2.3v10.1h0c0,.1,0,.2,0,.2l1.6,1.6v4.3h0c-.3,0-.6.2-.9.5h0c-.3.3-.5.7-.5,1.1h0s0,0,0,0c0,.4.2.8.5,1.1h0c.3.3.7.5,1.1.5h0s0,0,0,0h0c0,0,.1,0,.2,0,0,0,.2,0,.2,0,.3,0,.5-.2.7-.4.3-.3.5-.7.5-1.1h0s0,0,0,0c0-.4-.2-.8-.5-1.1-.2-.2-.4-.3-.7-.4,0,0-.1,0-.2,0v-4.4h0c0-.1,0-.2,0-.2h0s-1.5-1.6-1.5-1.6v-10.1h0c0-.1,0-.2,0-.2l-2.3-2.3v-10.7l3.3-3.3h0v-3.3h0c0-.1,0-.2,0-.2l-2.5-2.5v-7.9h0c0-.1,0-.2,0-.2l-2.3-2.3-.4-.4v12.1l-4.7,4.7h0v2.5l-1.4,1.4-1.6-1.6v-7.1l6-6h0v-26.5l2.4-2.4h0v-18.8h0c0-.1,0-.2,0-.2l-4-4v-34.5s-.5,0-.5,0ZM91,183.9h0c0,0,.1,0,.2,0,0,0,.2,0,.2,0,.1,0,.3.1.4.2.2.2.3.5.3.8h0s0,0,0,0c0,.3-.1.6-.3.8-.1.1-.2.2-.4.2,0,0-.2,0-.2,0,0,0-.1,0-.2,0h0s0,0,0,0h0c-.3,0-.6-.1-.8-.3h0c-.2-.2-.3-.5-.3-.8h0s0,0,0,0c0-.3.1-.6.3-.8h0c.2-.2.5-.3.8-.3h0s0,0,0,0Z"/>
        <path class="st2" d="M134.1,147.2c-.1-.2-.3-.4-.5-.6-.1,0-.3-.2-.5-.2v-1.4h0c0-.1,0-.2,0-.2l-.3-.3-1-1-4-4h0c0,0-.1,0-.1,0h-10.6l-.8-.8-.8-.8v-7.9l.8-.8,2.9-2.9h0v-23.2h0c0-.1,0-.2,0-.2l-2.9-2.9-3-3-4.1-4.1-.9-.9v-38.3h-.5v38.4h0c0,.1,0,.2,0,.2l.3.3,1.1,1.1,4.1,4.1,3,3,2.5,2.5v22.9l-2.5,2.5-1.2,1.2h0v8.3h0c0,.1,0,.2,0,.2l1.2,1.2.5.5h0c0,0,.1,0,.1,0h10.6l4.5,4.5.7.7v1.3c-.6.1-1.1.7-1.1,1.3s.5,1.3,1.2,1.3c0,0,0,0,.1,0,.3,0,.5,0,.7-.2.2-.1.4-.3.5-.6,0-.2.1-.4.1-.6s0-.4-.1-.6Z"/>
        <path class="st2" d="M109.1,91.9l4.1,4.1,3,3,3.7,3.7v23.9l-3.6,3.6h0c0,0,0,0,0,0h0v6.8h0c0,.1,0,.1,0,.1h0c0,0,1.5,1.6,1.5,1.6h0c0,0,.1,0,.1,0h10.8l4,4,.9.8h0s0,0,0,0c0,.2-.1.4-.1.7h0s0,0,0,0c0,.2,0,.5.1.7,0,.2.2.3.3.5,0,0,.1,0,.2.1.2.2.5.3.7.3,0,0,.2,0,.2,0h0s0,0,0,0h0c.4,0,.8-.2,1.1-.5.3-.3.5-.7.5-1.1h0s0,0,0,0c0-.4-.2-.8-.5-1.1-.3-.3-.7-.5-1.1-.5h0s0,0,0,0h0c0,0-.2,0-.2,0-.3,0-.5.2-.7.3,0,0-.1,0-.2.1h0s-.3-.3-.3-.3h0s-.8-.9-.8-.9l-3.7-3.7h0c0,0-.1,0-.1,0h-10.8l-1.4-1.4v-6.4l3.6-3.6h0v-24.3h0c0-.1,0-.2,0-.2l-4.1-4.1-3-3-3.6-3.6v-18.5l2.6-2.6c.3.2.7.4,1.1.4h0s0,0,0,0h0c.4,0,.8-.2,1.1-.5.3-.3.5-.7.5-1.1h0s0,0,0,0c0-.4-.2-.8-.5-1.1-.3-.3-.7-.5-1.1-.5h0s0,0,0,0h0c-.4,0-.8.2-1.1.5-.3.3-.5.7-.5,1.1h0s0,0,0,0c0,.3,0,.6.2.8l-2.7,2.7h0s0,0,0,0h0v18.8h0c0,.1,0,.2,0,.2h0ZM134,144.4c0-.2,0-.4.1-.5,0,0,0,0,0-.1h.1c0-.1,0-.1,0-.1h0c.1-.2.3-.3.5-.3,0,0,.2,0,.2,0h0s0,0,0,0h0c.3,0,.6.1.8.3.2.2.3.5.3.8h0s0,0,0,0c0,.3-.1.6-.3.8-.2.2-.5.3-.8.3h0s0,0,0,0h0c0,0-.2,0-.2,0-.2,0-.4-.2-.5-.3,0,0-.1-.2-.2-.3,0-.2-.1-.3-.1-.5h0s0,0,0,0ZM112.1,69.4c0-.3.1-.6.3-.8.2-.2.5-.3.8-.3h0s0,0,0,0h0c.3,0,.6.1.8.3.2.2.3.5.3.8h0s0,0,0,0c0,.3-.1.6-.3.8-.2.2-.5.3-.8.3h0s0,0,0,0h0c-.3,0-.5,0-.7-.3h0s-.2-.2-.2-.2h-.1c0-.3-.1-.5-.1-.6h0s0,0,0,0Z"/>
        <path class="st2" d="M93.7,53.6c.4,0,.7.5.7.9s-.3.8-.7.9c0,0-.1,0-.2,0-.5,0-.9-.4-.9-.9s.4-.9.9-.9h-.9c-.2.2-.4.6-.4.9,0,.7.5,1.2,1.1,1.3v27.6h0c0,.1,0,.2,0,.2l.4.4,1.1,1.1.5.5h.1c0,.1.2.4.2.4l1.5,1.5h.1v19.3h-.1c0,.1-1.5,1.7-1.5,1.7l-.2.2h-.1c0,.1-.5.6-.5.6l-1.1,1.1-.4.4h0v12.4h0c0,.1,0,.2,0,.2l.4.4,1.1,1.1.5.5h.1c0,.1.2.4.2.4l.3.3v25.3l-.3.3-.2.2h-.1c0,.1-.5.6-.5.6l-1.1,1.1-.6.6c-.2-.1-.5-.2-.8-.2s-.7.2-1,.4c-.1.1-.2.2-.2.4,0,.2-.1.4-.1.5s0,.4.1.5c0,.1.1.3.2.4.2.3.6.4,1,.4.7,0,1.4-.6,1.4-1.4s0-.5-.2-.8l.2-.2,1.1-1.1.5-.5h.1c0-.1.2-.4.2-.4l.8-.8h0v-25.6h0c0-.1,0-.2,0-.2l-.8-.8-.2-.2h-.1c0-.1-.5-.6-.5-.6l-1.1-1.1v-12l1.1-1.1.5-.5h.1c0-.1.2-.4.2-.4l1.5-1.5.6-.6h0v-19.5h0c0-.1,0-.2,0-.2l-.6-.6-1.5-1.5-.2-.2h-.1c0-.1-.5-.6-.5-.6l-1-1v-27.5c.5,0,.9-.5,1-1,0-.1,0-.2,0-.4s0-.3,0-.4c0-.2-.2-.4-.3-.5h-1c0,0,.1,0,.2,0Z"/>
        <path class="st2" d="M75.2,120l-.8.8h0v5.6h0c0,.1,0,.2,0,.2l.8.8,1.4,1.4v7.4l-1.4,1.4-.9.9s0,0,0,0c-.1-.1-.3-.2-.5-.3-.2,0-.3,0-.5,0h0s0,0,0,0h0c-.4,0-.8.1-1,.4,0,0,0,0,0,0-.3.3-.5.7-.5,1.1h0s0,0,0,0c0,.4.2.8.5,1.1,0,0,0,0,0,0,.3.2.6.4,1,.4h0s0,0,0,0h0c.2,0,.4,0,.5,0,.2,0,.3-.2.5-.3,0,0,0,0,.1-.1.3-.3.5-.7.5-1.1h0s0,0,0,0c0-.3,0-.6-.2-.8l.5-.5,1.6-1.6.3-.3h0v-7.8h0c0-.1,0-.2,0-.2l-.3-.3-1.6-1.6-.4-.4v-5.3l.4-.4,1.6-1.6,3.1-3.1h0v-3.9l2.1-2.1h0v-16.8l.8.8v16.5l-2,2h0v3.4l-4,4-1.1,1.1h0v5.1h0c0,.1,0,.2,0,.2l1.1,1.1,1.2,1.2v9.8l-1.2,1.2-1.6,1.6-.9.9-.5.5h-.1c0,.1-1.5,1.6-1.5,1.6l-1.1,1.1-.9.9h0v9.8h0c0,.1,0,.2,0,.2l.9.9.5.5c-.2.3-.3.6-.3.9h0s0,0,0,0c0,.4.2.8.5,1.1.1.1.3.2.4.3.2.1.5.2.7.2h0s0,0,0,0h0c.3,0,.6,0,.8-.2.1,0,.2-.1.3-.2h0c0,0,.1-.1.2-.2.2-.3.3-.6.3-.9h0s0,0,0,0c0-.3-.1-.7-.3-.9,0,0-.1-.1-.2-.2,0,0-.2-.2-.3-.2-.2-.2-.5-.2-.8-.2h0s0,0,0,0h0c-.3,0-.5,0-.7.2,0,0-.1,0-.2.1l-.9-.9-.5-.5v-9.4l.5-.5,1.1-1.1,1.4-1.4.2-.2.5-.5.9-.9,1.6-1.6,1.6-1.6h0v-10.2h0c0-.1,0-.2,0-.2l-1.6-1.6-.6-.6v-4.7l.6-.6,4.4-4.4h0v-3.4l2-2h0v-16.9h0c0-.1,0-.2,0-.2l-1.3-1.3-.4-.4v17.8l-2.1,2.1h0v3.9l-2.7,2.7-1.6,1.6ZM74.4,139.8c0,.2,0,.3,0,.4,0,.1-.1.2-.2.3,0,0-.2.1-.2.2-.2,0-.3.1-.5.1h0s0,0,0,0h0c-.3,0-.6-.1-.8-.3-.1-.1-.2-.3-.3-.4,0-.1,0-.2,0-.4h0s0,0,0,0c0-.1,0-.3,0-.4,0-.2.1-.3.3-.4.2-.2.5-.3.8-.3h0s0,0,0,0h0c.2,0,.4,0,.5.1.2.1.4.3.5.5,0,.1,0,.3,0,.5h0s0,0,0,0ZM71.9,158.4c0-.3,0-.5.3-.7,0,0,0,0,0,0h0s0,0,0,0c.2-.2.4-.3.7-.3h0s0,0,0,0h0c.3,0,.6.1.8.3,0,0,0,0,0,0,.2.2.3.4.3.7h0s0,0,0,0c0,.3,0,.5-.3.7,0,0,0,0,0,0h0c-.2.2-.5.3-.8.3h0s0,0,0,0h0c-.3,0-.5-.1-.7-.3,0,0,0,0,0,0-.2-.2-.3-.5-.3-.8h0s0,0,0,0Z"/>
        <path class="st2" d="M151,140.1c-.3-.3-.7-.5-1.1-.5h0s0,0,0,0h0c-.3,0-.7.1-.9.3l-.8-.8h-.1c0-.1,0-.2,0-.2h-4.6l-1.1-1.1-1.3-1.3h0c0,0-.1,0-.1,0h-7.8l.4.4.2.2.5.5.7.7.9.9h0c0,0,.1,0,.1,0h2.5l1.2,1.2,1.3,1.3v6.2h0c0,.1,0,.2,0,.2l1.2,1.2v4.1l-.4.4-2.1,2.1-1,1h0v2.2c-.4,0-.7.2-1,.5-.3.3-.5.7-.5,1.1h0s0,0,0,0c0,.4.2.8.5,1.1h0c.3.3.7.5,1.1.5h0s0,0,0,0h0c.3,0,.6-.1.9-.3,0,0,.2-.1.2-.2.3-.3.5-.7.5-1.1h0s0,0,0,0c0-.4-.2-.8-.5-1.1,0,0-.2-.1-.2-.2-.2-.1-.4-.2-.6-.2v-2l.6-.6,1.3-1.3,1.4-1.4.3-.3h0v-4.4h0c0-.1,0-.2,0-.2l-.3-.3-.9-.9v-6.2h0c0-.1,0-.2,0-.2l-1.7-1.7-.9-.9h0c0,0-.1,0-.1,0h-2.5l-1.2-1.2-.6-.6h6.5l1.5,1.5.8.8h0c0,0,.1,0,.1,0h4.5l.4.4.5.5c-.2.3-.3.6-.3,1h0s0,0,0,0c0,.4.2.8.5,1.1h0c.3.3.7.5,1.1.5h0s0,0,0,0h0c.4,0,.8-.2,1.1-.5.3-.3.5-.7.5-1.1h0s0,0,0,0c0-.4-.2-.8-.5-1.1ZM139.5,159.9s0,0,.1.1c.1.2.2.4.2.6h0s0,0,0,0c0,.2,0,.5-.2.6,0,0,0,0-.1.1-.2.2-.5.3-.8.3h0s0,0,0,0h0c-.3,0-.6-.1-.8-.3-.2-.2-.3-.5-.3-.8h0s0,0,0,0c0-.3.1-.6.3-.8.2-.2.4-.3.6-.3h.3c.2,0,.5.1.6.3ZM151,141.3c0,.3-.1.6-.3.8-.2.2-.5.3-.8.3h0s0,0,0,0h0c-.3,0-.6-.1-.8-.3h0c-.2-.2-.3-.5-.3-.8h0s0,0,0,0c0-.3.1-.6.3-.8.2-.2.5-.3.8-.3h0s0,0,0,0h0c.3,0,.6.1.8.3.2.2.3.5.3.8h0s0,0,0,0Z"/>
        <path class="st2" d="M99.9,66.7h.1c0-.1,1.3-1.5,1.3-1.5h0v-11.6h-.5v11.4l-.9.9h-.1c0,.1-1.4,1.5-1.4,1.5h0c0,0,0,.1,0,.1h0v20.2h0c0,.1,0,.2,0,.2h0c0,0,1.4,1.5,1.4,1.5l.6.6c-.2.2-.4.6-.4.9,0,.7.6,1.4,1.4,1.4s.9-.3,1.2-.7c.1-.2.2-.4.2-.7s0-.5-.2-.7c-.2-.4-.7-.7-1.2-.7s-.4,0-.6.1l-1-1-1.1-1.1v-19.9l1.1-1.1Z"/>
        <path class="st2" d="M77.3,105.2l-.6.6-1.6,1.6-.2.2h0v2.8c-.2,0-.5.2-.7.3-.3.2-.5.6-.5,1s.2.8.5,1c.2.2.4.3.7.3h0v4.2l-.7.6-.5.5-.3.3-1.3,1.3-.3.3h0v5.9l-.8.8-1.9,1.9h0c0,0,0,.2,0,.2h0v13.9l-2.5,2.5-.2.2h0v10.4h0c0,.1,0,.2,0,.2l.2.2,2.6,2.6.2.2v4.6h0c0,.1,0,.2,0,.2l1.6,1.6.2.2c0,.1-.2.3-.2.4,0,.1,0,.3,0,.5h0s0,0,0,0c0,.2,0,.3,0,.4,0,.3.2.5.4.7.2.2.4.3.7.4.1,0,.3,0,.4,0h0s0,0,0,0h0c.4,0,.8-.2,1.1-.5h0c.3-.3.5-.7.5-1.1h0s0,0,0,0c0-.4-.2-.8-.5-1.1h0c-.3-.3-.7-.5-1.1-.5h0s0,0,0,0h0c-.2,0-.3,0-.4,0-.2,0-.4.2-.6.3h0c0,0-.5-.5-.5-.5l-1.2-1.2v-4.6h0c0-.1,0-.2,0-.2l-.6-.6-2.4-2.4v-10l2.4-2.4.3-.3h0v-14l1.6-1.6,1.1-1.1h0c0,0,0-.2,0-.2h0v-5.8l1.1-1.1.3-.3.5-.5.9-.9.2-.2h0v-4.4h0c.6-.1,1.1-.7,1.1-1.4s-.5-1.2-1.1-1.3v-2.5l1.3-1.3,1-1h0v-51.9h-.5v51.7ZM71.6,166.4c0-.2,0-.4.2-.6l.3-.3h0c0,0,.1,0,.2-.1.1,0,.3,0,.4,0h0s0,0,0,0h0c.3,0,.6.1.8.3.2.2.3.5.3.8h0s0,0,0,0c0,.3-.1.6-.3.8-.2.2-.5.3-.8.3h0s0,0,0,0h0c-.2,0-.3,0-.4,0-.1,0-.2-.1-.3-.2-.2-.2-.3-.5-.3-.8h0s0,0,0,0ZM76.2,111.7c0,.5-.4,1-1,1h0c-.4,0-.8-.3-.9-.6,0-.1,0-.2,0-.4s0-.2,0-.4c.1-.4.5-.6.9-.6h0c.5,0,1,.4,1,1Z"/>
        <path class="st2" d="M66.6,143.2l.7-.7h0v-14.4l1.9-1.9,1.1-1.1h0v-17.9l.7-.7.9-.9h0v-7.5l.2-.2,1.6-1.6.5-.5.9-.9.4-.4h0v-40.9h0c0-.1-.5-.1-.5-.1v40.7l-.9.9-.5.5-1.6,1.6-.6.6h0v7.5l-.4.4-1.1,1.1h0v17.9l-.7.7-2.3,2.3h0v14.4l-.2.2-1,1h0v15.2h0c0,.1,0,.2,0,.2l1,1,1.9,1.9v3.8h0c0,.1,0,.2,0,.2l.6.6,1.9,1.9,1.1,1.1,1.6,1.6.5.5.9.9,1.3,1.3c-.1.2-.2.5-.2.8,0,.4.2.8.5,1.1.2.2.5.3.8.3.7,0,1.4-.6,1.4-1.4s-.6-1.4-1.4-1.4-.5,0-.8.2h0s-1.6-1.6-1.6-1.6l-.9-.9-.5-.5-1.6-1.6-1.1-1.1-1.9-1.9-.2-.2v-3.8h0c0-.1,0-.2,0-.2l-2.3-2.3-.6-.6v-14.8l.6-.6Z"/>
        <path class="st2" d="M149.3,157c-.3-.3-.7-.5-1.1-.5h0s0,0,0,0h0c-.4,0-.7.1-1,.3h0s-2.1-2.1-2.1-2.1l-1.1-1.1v-3.2l1.1-1.1.6-.6c.2.1.5.2.8.2.7,0,1.4-.6,1.4-1.4s-.6-1.4-1.4-1.4-1.4.6-1.4,1.4,0,.5.2.8l-.2.2-1.5,1.5h0v3.6h0c0,.1,0,.2,0,.2l1.5,1.5,1.7,1.7c-.2.3-.3.6-.3.9h0s0,0,0,0c0,.4.2.8.5,1.1h0c.3.3.7.5,1.1.5h0s0,0,0,0h0c.4,0,.8-.2,1.1-.5.3-.3.5-.7.5-1.1h0s0,0,0,0c0-.4-.2-.8-.5-1.1ZM149.2,158.2c0,.3-.1.6-.3.8-.2.2-.5.3-.8.3h0s0,0,0,0h0c-.3,0-.6-.1-.8-.3-.2-.2-.3-.5-.3-.8h0s0,0,0,0c0-.2,0-.4.1-.5h.1c0,.1.2,0,.2,0l.2-.2h-.1c.2-.2.4-.3.6-.3h0s0,0,0,0h0c.3,0,.6.1.8.3.2.2.3.5.3.8h0s0,0,0,0Z"/>
        <path class="st2" d="M154.8,145c-.3,0-.5,0-.7.2l-.9-.9v-5.2h0c0-.1,0-.2,0-.2l-2.9-2.9h0c0,0-.1,0-.1,0h-1.9c0,0-3.1-3.1-3.1-3.1l-1.3-1.3h0c0,0-.1,0-.1,0h-3.5c0,0-.4.4-.4.4l-1.5,1.5h-2.9c0-.3-.2-.5-.4-.8h0c-.2-.2-.5-.4-.7-.4-.1,0-.3,0-.4,0h0s0,0,0,0h0s0,0,0,0c-.3,0-.6.1-.9.3,0,0-.1.1-.2.2-.3.3-.5.7-.5,1.1h0s0,0,0,0c0,.4.2.8.5,1.1h0c0,0,.1.1.2.2.2.2.5.3.9.3,0,0,0,0,0,0h0s0,0,0,0h0c.1,0,.3,0,.4,0,.3,0,.5-.2.7-.4h0c.3-.3.4-.6.5-1h3.1s0,0,0,0l1.2-1.2.6-.6h3.2l1.6,1.6,2.9,2.9h0c0,0,.1,0,.1,0h1.8l2.8,2.8v5.2h0c0,.1,0,.2,0,.2l.9.9c-.2.2-.3.5-.3.8,0,.7.6,1.4,1.4,1.4s1.4-.6,1.4-1.4-.6-1.4-1.4-1.4ZM134.8,133.8c0,.3-.1.6-.3.8h0c-.1.1-.2.2-.4.3-.1,0-.2,0-.4,0h0s0,0,0,0h0s0,0,0,0c-.3,0-.5-.1-.7-.3h0c0,0-.1-.1-.2-.2,0-.2-.2-.4-.2-.6h0s0,0,0,0c0-.2,0-.4.2-.6,0,0,.1-.1.2-.2.2-.2.4-.3.7-.3,0,0,0,0,0,0h0s0,0,0,0h0c.1,0,.3,0,.4,0,.1,0,.3.1.4.3.2.2.3.5.3.8h0s0,0,0,0Z"/>
        <path class="st2" d="M161.7,126c-.3,0-.5,0-.8.2h0s-1.7-1.7-1.7-1.7h0c0,0-.1,0-.1,0h-5.1l-2.5-2.5-.2-.2c.3-.3.4-.7.4-1.1h0s0,0,0,0c0-.4-.2-.8-.5-1.1-.3-.3-.7-.5-1.1-.5h0s0,0,0,0h0s0,0-.1,0c-.4,0-.7.2-1,.5-.3.3-.5.7-.5,1.1h0s0,0,0,0c0,.4.2.8.5,1.1h0c.3.3.6.4,1,.5,0,0,0,0,.1,0h0s0,0,0,0h0c.3,0,.6,0,.8-.2l2.8,2.8h0c0,0,.1,0,.1,0h5.1l1.7,1.7c-.1.2-.2.5-.2.8,0,.5.2.9.6,1.1.2.1.5.2.8.2.7,0,1.4-.6,1.4-1.4s-.6-1.4-1.4-1.4ZM151.1,120.6c0,.3,0,.5-.3.7h0s-.2.2-.2.2h0c-.2.2-.4.2-.6.2h0s0,0,0,0h0s0,0-.1,0c-.2,0-.5-.1-.6-.3h0c-.2-.2-.3-.5-.3-.8h0s0,0,0,0c0-.3.1-.6.3-.8.2-.2.4-.3.6-.3,0,0,0,0,.1,0h0s0,0,0,0h0c.3,0,.6.1.8.3.2.2.3.5.3.8h0s0,0,0,0Z"/>
        <path class="st2" d="M73.9,93.5h0s-1.6,1.6-1.6,1.6l-1.1,1.1-.5.5h0v7.9l-1.3,1.3-.8.8h0v18l-1.3,1.3-.5.5-.5.5h0v14.4l-1.7,1.7h0v16.1h0c0,.1,0,.2,0,.2l.6.6,1.7,1.7,1,1v3.7h0c0,.1,0,.2,0,.2l1.6,1.6,1.9,1.9.9.9v4.8l-.9.9-1.9,1.9-2.6,2.6-1.6,1.6h0v2.7l-.8.7c-.2-.2-.6-.3-.9-.3s-.4,0-.6.2c-.4.2-.7.7-.7,1.2s.3,1,.7,1.2c.2,0,.4.2.6.2.7,0,1.4-.6,1.4-1.4s0-.4-.2-.6l.9-.7h0v-2.7l1.2-1.2,2.6-2.6,1.9-1.9,1.1-1.1.2-.2h0v-5.2h0c0-.1,0-.2,0-.2l-.2-.2-1.1-1.1-1.9-1.9-1.1-1.1v-3.7h0c0-.1,0-.2,0-.2l-1.4-1.4-1.6-1.6-.2-.2v-15.7l1.3-1.3.4-.4h0v-14.4h0c0,0,.4-.5.4-.5l1.8-1.8h0v-18l.4-.4,1.8-1.8h0v-7.9h0s1.1-1.1,1.1-1.1l1.6-1.6.5-.5h0s0,0,0,0h0v-40.2h-.5v40Z"/>
        <polygon class="st2" points="103.1 65.4 102.6 65.8 99.9 68.6 99.9 68.6 99.8 68.7 99.8 68.8 99.8 83.9 99.9 83.9 100.3 83.9 100.3 83.8 100.3 68.9 102.6 66.6 103.5 65.6 103.6 65.6 103.6 65.5 103.7 53.6 103.2 53.6 103.1 65.4"/>
        <polygon class="st2" points="104.5 53.6 104.5 65.4 104 65.9 102.6 67.3 101.3 68.6 101.2 68.7 101.2 68.8 101.2 83.7 101.5 83.7 101.7 83.7 101.7 68.9 102.6 68 104 66.6 105 65.7 105 65.6 105 65.5 105 53.6 104.5 53.6"/>
        <path class="st2" d="M157.6,141.6c-.4,0-.8.2-1,.5h-.2c0,0-.8-.6-.8-.6v-4.2h0c0-.1,0-.2,0-.2l-2.1-2.1h0c0,0-.1,0-.1,0h-3.4c0,0-1.8-1.8-1.8-1.8l-1.9-1.9c.2-.3.4-.6.4-1.1h0s0,0,0,0c0-.4-.2-.8-.5-1.1-.3-.3-.7-.5-1.1-.5h0s0,0,0,0h0c-.4,0-.8.2-1.1.5-.3.3-.5.7-.5,1.1h0s0,0,0,0c0,.4.2.8.5,1.1.3.3.7.5,1.1.5h0s0,0,0,0h0c.3,0,.6,0,.8-.2l2.2,2.2,1.5,1.5h0c0,0,.1,0,.1,0h3.3l2,2v4.3h0c0,.1.1.2.1.2l1.1.6c0,.1,0,.3,0,.4,0,.7.6,1.4,1.4,1.4s1.4-.6,1.4-1.4-.6-1.4-1.4-1.4ZM146.2,130.1c0,.3,0,.5-.3.7h0s-.2.2-.2.2c-.2.1-.4.2-.7.2h0s0,0,0,0h0c-.3,0-.6-.1-.8-.3-.2-.2-.3-.5-.3-.8h0s0,0,0,0c0-.3.1-.6.3-.8.2-.2.5-.3.8-.3h0s0,0,0,0h0c.3,0,.6.1.8.3.2.2.3.5.3.8h0s0,0,0,0Z"/>
      </g>
      <g>
        <path class="st4" d="M173,86.7s-36.9,48.1-82.5,48.1S8,86.7,8,86.7c0,0,36.9-48.1,82.5-48.1s82.5,48.1,82.5,48.1Z"/>
        <path class="st0" d="M166,86.7s-33.8,44.1-75.5,44.1S15,86.7,15,86.7c0,0,33.8-44.1,75.5-44.1s75.5,44.1,75.5,44.1Z"/>
        <circle class="st9" cx="90.5" cy="86.7" r="43.6"/>
        <circle class="st5" cx="90.5" cy="86.7" r="31.4" transform="translate(-34.8 89.4) rotate(-45)"/>
        <rect class="st0" x="76.1" y="72.4" width="28.7" height="28.7" rx="2.7" ry="2.7"/>
        <g>
          <path class="st6" d="M84.5,72.4h-3.6v-6.9c0-1,.8-1.8,1.8-1.8h0c1,0,1.8.8,1.8,1.8v6.9Z"/>
          <path class="st6" d="M92.3,72.4h-3.6v-6.9c0-1,.8-1.8,1.8-1.8h0c1,0,1.8.8,1.8,1.8v6.9Z"/>
          <path class="st6" d="M100.1,72.4h-3.6v-6.9c0-1,.8-1.8,1.8-1.8h0c1,0,1.8.8,1.8,1.8v6.9Z"/>
        </g>
        <g>
          <path class="st6" d="M96.5,101.1h3.6v6.9c0,1-.8,1.8-1.8,1.8h0c-1,0-1.8-.8-1.8-1.8v-6.9Z"/>
          <path class="st6" d="M88.7,101.1h3.6v6.9c0,1-.8,1.8-1.8,1.8h0c-1,0-1.8-.8-1.8-1.8v-6.9Z"/>
          <path class="st6" d="M80.9,101.1h3.6v6.9c0,1-.8,1.8-1.8,1.8h0c-1,0-1.8-.8-1.8-1.8v-6.9Z"/>
        </g>
        <g>
          <path class="st6" d="M104.9,80.7v-3.6h6.9c1,0,1.8.8,1.8,1.8h0c0,1-.8,1.8-1.8,1.8h-6.9Z"/>
          <path class="st6" d="M104.9,88.5v-3.6h6.9c1,0,1.8.8,1.8,1.8h0c0,1-.8,1.8-1.8,1.8h-6.9Z"/>
          <path class="st6" d="M104.9,96.3v-3.6h6.9c1,0,1.8.8,1.8,1.8h0c0,1-.8,1.8-1.8,1.8h-6.9Z"/>
        </g>
        <g>
          <path class="st6" d="M76.1,92.8v3.6h-6.9c-1,0-1.8-.8-1.8-1.8h0c0-1,.8-1.8,1.8-1.8h6.9Z"/>
          <path class="st6" d="M76.1,84.9v3.6h-6.9c-1,0-1.8-.8-1.8-1.8h0c0-1,.8-1.8,1.8-1.8h6.9Z"/>
          <path class="st6" d="M76.1,77.1v3.6h-6.9c-1,0-1.8-.8-1.8-1.8h0c0-1,.8-1.8,1.8-1.8h6.9Z"/>
        </g>
        <path class="st7" d="M95.8,51.1c30.9,0,57.4,24.1,69.1,36.7.8-.9,1.2-1.4,1.2-1.4,0,0-33.8-44.1-75.5-44.1S15,86.4,15,86.4c0,0,2.3,3,6.4,7.4,6.2-7.6,37.2-42.6,74.4-42.6Z"/>
        <path class="st1" d="M60,56.1c-17,17-17,44.6,0,61.6l61.6-61.6c-17-17-44.6-17-61.6,0Z"/>
      </g>
    </g>
  </g>
</svg>